<svg width="64" height="74" viewBox="0 0 64 74" fill="none" xmlns="http://www.w3.org/2000/svg">
<g filter="url(#filter0_f_15_1715)">
<path d="M61.2744 62.5511C61.2744 66.9045 48.1232 70.452 31.8962 70.452C15.6693 70.452 2.51788 66.9276 2.51788 62.5511C2.51788 58.1974 15.6693 54.6499 31.896 54.6499C48.1232 54.6499 61.2516 58.1974 61.2744 62.5511Z" fill="black" fill-opacity="0.2"/>
</g>
<path d="M15.807 54.0511C12.9609 49.9508 12.4101 36.5906 19.043 28.3668C22.3253 24.4283 23.1745 21.687 23.427 17.9782C23.6104 13.7627 20.4662 1.20883 32.3092 0.264387C44.3131 -0.703132 43.6475 11.1828 43.5785 17.4715C43.5328 22.7694 47.4576 25.7871 50.1657 29.9336C55.1463 37.5351 54.7332 50.6188 49.2247 57.7137C42.2473 66.5822 36.28 62.7352 32.3092 63.0578C24.8729 63.4955 24.6205 67.4576 15.807 54.0511Z" fill="black"/>
<path d="M44.772 30.7165C46.8378 32.6285 52.1855 41.1744 43.7163 46.5187C40.7327 48.3845 46.3789 55.4792 49.087 52.0471C53.8841 45.8737 50.8316 36.0147 47.9395 32.4903C46.0115 30.0026 43.0279 29.0351 44.7723 30.7168" fill="url(#paint0_linear_15_1715)"/>
<path d="M44.1983 29.5649C47.595 32.3292 53.7691 42.0036 44.7492 48.3152C41.7884 50.2733 47.3656 56.4698 50.5101 53.3138C61.4121 42.3031 50.2347 29.6569 46.3786 25.3032C42.9359 21.5026 39.8834 26.1787 44.1983 29.5649Z" fill="black" stroke="black" stroke-width="0.132475"/>
<path d="M39.3095 6.2762C39.1948 9.43211 35.7291 12.1736 31.5748 12.427C27.4206 12.6803 24.1616 10.2847 24.2761 7.12883C24.391 3.97292 27.8567 1.23166 32.011 0.978302C36.165 0.748024 39.4243 3.12054 39.3095 6.2762Z" fill="url(#paint1_linear_15_1715)"/>
<path d="M29.3713 13.7858C29.4863 15.836 28.5223 17.5636 27.1911 17.6326C25.8599 17.7018 24.6892 16.1124 24.5744 14.0622C24.4597 12.0121 25.4237 10.2845 26.7549 10.2155C28.0861 10.1463 29.2568 11.7356 29.3713 13.7858Z" fill="url(#paint2_linear_15_1715)"/>
<path d="M31.7812 13.9471C31.8272 16.3196 33.3651 18.2085 35.2012 18.1626C37.0373 18.1164 38.4832 16.1583 38.4374 13.7627C38.3914 11.3902 36.8538 9.50133 35.0175 9.54749C33.1814 9.59339 31.7125 11.5743 31.7812 13.9471Z" fill="url(#paint3_linear_15_1715)"/>
<path d="M33.2962 14.4769C33.2732 15.7899 33.916 16.8494 34.7651 16.8494C35.5914 16.8494 36.303 15.7899 36.3259 14.5C36.3487 13.1871 35.7061 12.1272 34.8568 12.1272C34.0077 12.1272 33.3192 13.1871 33.2962 14.4769ZM27.9944 14.5C28.1091 15.5827 27.696 16.504 27.0991 16.5961C26.5025 16.6653 25.9286 15.8591 25.8139 14.7764C25.6989 13.6938 26.1123 12.7722 26.709 12.6801C27.3058 12.6111 27.8797 13.4173 27.9944 14.5Z" fill="black"/>
<path d="M33.6406 13.7397C33.5716 14.4769 33.916 15.0757 34.3979 15.1218C34.8798 15.168 35.3389 14.592 35.4077 13.8779C35.4766 13.1409 35.1322 12.5419 34.6503 12.4957C34.1685 12.4498 33.7093 13.0255 33.6406 13.7397Z" fill="url(#paint4_linear_15_1715)"/>
<path d="M27.4893 13.924C27.5583 14.5231 27.3058 15.0529 26.9387 15.0988C26.5712 15.1449 26.2271 14.6841 26.1581 14.0623C26.0894 13.4632 26.3418 12.9334 26.709 12.8875C27.0764 12.8414 27.4205 13.325 27.4893 13.924Z" fill="url(#paint5_linear_15_1715)"/>
<path d="M20.2595 36.5445C21.8891 32.8357 25.3548 26.3169 25.4237 21.2721C25.4237 17.2641 37.3817 16.2965 38.3457 20.3048C39.3095 24.3129 41.7424 30.3019 43.3031 33.2044C44.8639 36.0836 49.3854 45.2747 44.5655 53.2908C40.2275 60.3857 27.0764 66.0062 20.053 52.3235C17.6661 47.5782 18.102 41.7044 20.2595 36.5445Z" fill="url(#paint6_linear_15_1715)"/>
<path d="M18.7906 33.7801C17.3906 36.4291 14.4986 43.3858 21.5679 47.1867C29.1649 51.2409 29.1419 59.5565 20.007 55.5943C11.6527 52.024 15.3479 37.5579 17.6891 34.1027C19.2037 31.684 21.4989 28.7125 18.7906 33.7801Z" fill="url(#paint7_linear_15_1715)"/>
<path d="M19.984 30.7857C17.7578 34.4253 12.4331 42.9942 19.5711 47.4631C29.1649 53.3831 26.4565 59.28 17.6891 53.9588C5.34097 46.5417 16.1969 31.5689 21.1318 25.8563C26.778 19.4525 22.2105 27.0313 19.984 30.7857Z" fill="black" stroke="black" stroke-width="0.169492"/>
<path d="M41.6047 37.9495C41.6047 42.0037 37.7259 47.2559 31.0697 47.2097C24.2073 47.2556 21.2925 42.0037 21.2925 37.9495C21.2925 33.8955 25.8369 30.6014 31.4371 30.6014C37.0603 30.6245 41.6047 33.8955 41.6047 37.9495Z" fill="url(#paint8_linear_15_1715)"/>
<path d="M37.9786 25.2112C37.9096 29.4036 35.1782 30.3942 31.7355 30.3942C28.2926 30.3942 25.7909 29.7721 25.4925 25.2112C25.4925 22.3548 28.2926 20.6964 31.7355 20.6964C35.1782 20.6733 37.9786 22.3319 37.9786 25.2112Z" fill="url(#paint9_linear_15_1715)"/>
<path d="M17.161 31.6609C19.4104 28.2288 24.1613 22.9538 18.0562 32.3982C13.0987 40.184 16.2202 45.1826 17.8268 46.5645C22.463 50.7111 22.2793 53.498 18.6301 51.3098C10.8034 46.6338 12.4331 38.7557 17.161 31.6609Z" fill="url(#paint10_linear_15_1715)"/>
<path d="M49.7298 33.0662C47.7788 29.0351 41.5817 18.8075 50.028 30.6934C57.717 41.4508 52.3232 48.9373 51.3592 49.6743C50.3954 50.4116 47.1592 51.9089 48.1 49.3058C49.0642 46.7028 53.8381 41.7734 49.7296 33.066" fill="url(#paint11_linear_15_1715)"/>
<path d="M15.4626 64.8546C10.3213 62.1133 2.86204 65.3844 5.57041 57.9671C6.12128 56.2854 4.7671 53.7516 5.63914 52.116C6.67215 50.112 8.89838 50.5498 10.2296 49.2137C11.5378 47.8316 12.3641 45.436 14.82 45.8047C17.2529 46.173 18.8825 49.1676 20.5809 52.8533C21.8431 55.4792 26.2958 59.1879 25.9976 62.1364C25.6302 66.6512 20.5119 67.5035 15.4626 64.8546Z" fill="url(#paint12_linear_15_1715)" stroke="#E68C3F" stroke-width="0.847458"/>
<path d="M52.8971 47.44C52.1168 48.9142 48.8575 51.2868 46.6771 50.6649C44.4738 50.0659 43.4638 46.7028 43.9 44.1459C44.3131 41.2897 46.6771 41.1282 49.6611 42.5565C52.8741 44.1459 53.8381 45.4819 52.8971 47.44Z" fill="url(#paint13_linear_15_1715)"/>
<path d="M51.1067 63.5873C54.8709 59.0036 63.2484 59.948 57.6022 53.6595C56.4087 52.3004 56.7759 49.3979 55.307 48.1542C53.5857 46.6338 51.6806 47.8777 49.9363 47.0946C48.1919 46.2422 46.3558 44.6067 44.2214 45.7583C42.0869 46.9333 41.8572 49.9738 41.6507 53.9819C41.467 56.8613 38.8506 61.6756 40.2505 64.3246C42.2703 68.4249 47.5263 67.8718 51.1067 63.5873Z" fill="url(#paint14_linear_15_1715)" stroke="#E68C3F" stroke-width="0.847593"/>
<path d="M49.4771 57.4601C55.307 48.8222 50.9692 48.8912 49.5001 48.2232C48.0312 47.5321 46.4933 46.173 44.7722 47.1174C43.0506 48.0849 42.9589 50.5728 42.9129 53.8436C42.8442 56.1933 40.8934 60.1324 42.0638 62.3205C43.4867 64.8774 46.9294 61.1689 49.4771 57.4601Z" fill="url(#paint15_linear_15_1715)"/>
<path d="M14.2691 58.7041C5.54741 53.0374 9.6327 51.1026 10.9411 50.2041C12.5248 49.0525 12.5478 46.841 14.4986 47.0485C16.4496 47.2557 17.5971 49.6743 18.9053 52.6689C19.8693 54.8112 23.2203 57.6676 22.9678 60.1324C22.6466 63.0347 18.0332 61.1227 14.2691 58.7041Z" fill="url(#paint16_linear_15_1715)"/>
<path d="M52.3922 47.3708C51.7036 48.5688 48.9035 50.4577 47.0444 49.9508C45.1394 49.4671 44.2671 46.772 44.6575 44.7449C45.0017 42.4414 47.0444 42.3262 49.6148 43.4781C52.3462 44.7218 53.1955 45.7814 52.3922 47.3708Z" fill="black"/>
<path d="M50.5102 46.7028C50.074 47.5321 48.2379 48.845 46.9525 48.4996C45.6673 48.1542 45.0247 46.2884 45.2311 44.8831C45.4149 43.2938 46.7918 43.2015 48.5361 43.9849C50.4182 44.8603 51.015 45.5973 50.5102 46.7028Z" fill="url(#paint17_linear_15_1715)"/>
<path d="M26.7779 16.6422C27.696 15.7898 29.9222 13.187 34.1454 15.905C34.9258 16.4117 35.5684 16.4578 37.0603 17.1028C40.0671 18.347 38.6439 21.3413 35.4306 22.3548C34.0535 22.7925 32.8143 24.4742 30.3353 24.3129C28.2008 24.1975 27.65 22.7927 26.3418 22.0324C24.0236 20.7195 23.6794 18.9457 24.9416 18.0013C26.2041 17.0569 26.6862 16.7112 26.7779 16.6422Z" fill="url(#paint18_linear_15_1715)" stroke="#E68C3F" stroke-width="0.508475"/>
<path d="M37.1062 19.0609C35.844 19.1299 33.1124 21.8711 30.2436 21.8711C27.3745 21.8711 25.6532 19.1991 25.2173 19.1991" stroke="#E68C3F" stroke-width="0.338983"/>
<path d="M28.2009 16.4119C28.66 15.9973 30.1059 14.8685 32.011 16.0201C32.4241 16.2506 32.8373 16.504 33.4339 16.8494C34.6503 17.5636 34.0537 18.6003 32.5846 19.245C31.919 19.5214 30.8175 20.1205 29.9912 20.0743C29.0732 19.9823 28.4533 19.3832 27.8567 18.9917C26.732 18.2547 26.8009 17.6326 27.3288 17.1489C27.7187 16.7802 28.1546 16.4348 28.2009 16.4119Z" fill="url(#paint19_linear_15_1715)"/>
<defs>
<filter id="filter0_f_15_1715" x="0.755171" y="52.8872" width="62.2819" height="19.3275" filterUnits="userSpaceOnUse" color-interpolation-filters="sRGB">
<feFlood flood-opacity="0" result="BackgroundImageFix"/>
<feBlend mode="normal" in="SourceGraphic" in2="BackgroundImageFix" result="shape"/>
<feGaussianBlur stdDeviation="0.881356" result="effect1_foregroundBlur_15_1715"/>
</filter>
<linearGradient id="paint0_linear_15_1715" x1="466.482" y1="2692.25" x2="618.208" y2="996.829" gradientUnits="userSpaceOnUse">
<stop stop-color="#FFEED7"/>
<stop offset="1" stop-color="#BDBFC2"/>
</linearGradient>
<linearGradient id="paint1_linear_15_1715" x1="842.518" y1="28.5668" x2="770.088" y2="1044.28" gradientUnits="userSpaceOnUse">
<stop stop-color="white" stop-opacity="0.8"/>
<stop offset="1" stop-color="white" stop-opacity="0"/>
</linearGradient>
<linearGradient id="paint2_linear_15_1715" x1="274.294" y1="665.138" x2="229.69" y2="84.5363" gradientUnits="userSpaceOnUse">
<stop stop-color="#FFEED7"/>
<stop offset="1" stop-color="#BDBFC2"/>
</linearGradient>
<linearGradient id="paint3_linear_15_1715" x1="364.258" y1="746.193" x2="364.246" y2="128.553" gradientUnits="userSpaceOnUse">
<stop stop-color="#FFEED7"/>
<stop offset="1" stop-color="#BDBFC2"/>
</linearGradient>
<linearGradient id="paint4_linear_15_1715" x1="129.828" y1="20.6554" x2="99.2783" y2="257.445" gradientUnits="userSpaceOnUse">
<stop stop-color="white" stop-opacity="0.65"/>
<stop offset="1" stop-color="white" stop-opacity="0"/>
</linearGradient>
<linearGradient id="paint5_linear_15_1715" x1="87.8734" y1="25.0251" x2="120.753" y2="216.772" gradientUnits="userSpaceOnUse">
<stop stop-color="white" stop-opacity="0.65"/>
<stop offset="1" stop-color="white" stop-opacity="0"/>
</linearGradient>
<linearGradient id="paint6_linear_15_1715" x1="1432.18" y1="3876.99" x2="1432.18" y2="1763.07" gradientUnits="userSpaceOnUse">
<stop stop-color="#FFEED7"/>
<stop offset="1" stop-color="#BDBFC2"/>
</linearGradient>
<linearGradient id="paint7_linear_15_1715" x1="670.522" y1="2593.32" x2="129.311" y2="754.972" gradientUnits="userSpaceOnUse">
<stop stop-color="#FFEED7"/>
<stop offset="1" stop-color="#BDBFC2"/>
</linearGradient>
<linearGradient id="paint8_linear_15_1715" x1="1033.67" y1="250.317" x2="1039.11" y2="1603" gradientUnits="userSpaceOnUse">
<stop stop-color="white" stop-opacity="0.8"/>
<stop offset="1" stop-color="white" stop-opacity="0"/>
</linearGradient>
<linearGradient id="paint9_linear_15_1715" x1="648.885" y1="382.693" x2="654.911" y2="920.54" gradientUnits="userSpaceOnUse">
<stop stop-color="white" stop-opacity="0.65"/>
<stop offset="1" stop-color="white" stop-opacity="0"/>
</linearGradient>
<linearGradient id="paint10_linear_15_1715" x1="419.797" y1="84.5699" x2="419.797" y2="2058.37" gradientUnits="userSpaceOnUse">
<stop stop-color="white" stop-opacity="0.65"/>
<stop offset="1" stop-color="white" stop-opacity="0"/>
</linearGradient>
<linearGradient id="paint11_linear_15_1715" x1="463.799" y1="83.4037" x2="463.093" y2="1866.82" gradientUnits="userSpaceOnUse">
<stop stop-color="white" stop-opacity="0.65"/>
<stop offset="1" stop-color="white" stop-opacity="0"/>
</linearGradient>
<linearGradient id="paint12_linear_15_1715" x1="1128.68" y1="1052.68" x2="835.075" y2="2068.23" gradientUnits="userSpaceOnUse">
<stop stop-color="#FFA63F"/>
<stop offset="1" stop-color="#FFFF00"/>
</linearGradient>
<linearGradient id="paint13_linear_15_1715" x1="538.217" y1="1341.69" x2="496.251" y2="-545.838" gradientUnits="userSpaceOnUse">
<stop stop-color="#FFEED7"/>
<stop offset="1" stop-color="#BDBFC2"/>
</linearGradient>
<linearGradient id="paint14_linear_15_1715" x1="641.112" y1="785.644" x2="1439.09" y2="1912.06" gradientUnits="userSpaceOnUse">
<stop stop-color="#FFA63F"/>
<stop offset="1" stop-color="#FFFF00"/>
</linearGradient>
<linearGradient id="paint15_linear_15_1715" x1="681.686" y1="-235.072" x2="408.387" y2="1097.96" gradientUnits="userSpaceOnUse">
<stop stop-color="white" stop-opacity="0.65"/>
<stop offset="1" stop-color="white" stop-opacity="0"/>
</linearGradient>
<linearGradient id="paint16_linear_15_1715" x1="684.426" y1="69.8232" x2="738.453" y2="1565.85" gradientUnits="userSpaceOnUse">
<stop stop-color="white" stop-opacity="0.65"/>
<stop offset="1" stop-color="white" stop-opacity="0"/>
</linearGradient>
<linearGradient id="paint17_linear_15_1715" x1="284.214" y1="66.4035" x2="347.503" y2="514.004" gradientUnits="userSpaceOnUse">
<stop stop-color="white" stop-opacity="0.65"/>
<stop offset="1" stop-color="white" stop-opacity="0"/>
</linearGradient>
<linearGradient id="paint18_linear_15_1715" x1="745.109" y1="184.194" x2="750.383" y2="971.373" gradientUnits="userSpaceOnUse">
<stop stop-color="#FFA63F"/>
<stop offset="1" stop-color="#FFFF00"/>
</linearGradient>
<linearGradient id="paint19_linear_15_1715" x1="384.49" y1="28.695" x2="383.061" y2="444.927" gradientUnits="userSpaceOnUse">
<stop stop-color="white" stop-opacity="0.65"/>
<stop offset="1" stop-color="white" stop-opacity="0"/>
</linearGradient>
</defs>
</svg>
